<?xml version="1.0" standalone="no"?>
<!DOCTYPE svg PUBLIC "-//W3C//DTD SVG 1.1//EN" "http://www.w3.org/Graphics/SVG/1.1/DTD/svg11.dtd" >
<svg xmlns="http://www.w3.org/2000/svg">
<metadata>
This is a custom SVG webfont generated by Font Squirrel.
</metadata>
<defs>
<font id="webfontapWGUMC3" horiz-adv-x="360" >
<font-face units-per-em="1000" ascent="750" descent="-250" />
<missing-glyph horiz-adv-x="132" />
<glyph unicode=" "  horiz-adv-x="132" />
<glyph unicode="&#x09;" horiz-adv-x="132" />
<glyph unicode="&#xa0;" horiz-adv-x="132" />
<glyph unicode="!" horiz-adv-x="208" d="M40 57q0 26 19 45t45 19t45 -19t19 -45t-19 -45t-45 -19t-45 19t-19 45zM83 170q-13 0 -15 14l-22 210q-1 6 -1 14v14v264q0 14 14 14h90q14 0 14 -14v-264v-14q0 -8 -1 -14l-22 -210q-2 -14 -15 -14h-42z" />
<glyph unicode="&#x22;" horiz-adv-x="278" d="M170 476q-14 0 -14 14v196q0 14 14 14h75q14 0 12 -14l-36 -196q-2 -14 -16 -14h-35zM34 476q-14 0 -14 14v196q0 14 14 14h75q14 0 12 -14l-36 -196q-2 -14 -16 -14h-35z" />
<glyph unicode="#" horiz-adv-x="476" d="M337 392l-13 -82h118q14 0 14 -14v-32q0 -14 -14 -14h-128l-21 -134q-2 -14 -16 -14h-31q-14 0 -12 14l21 134h-68l-21 -134q-2 -14 -16 -14h-31q-14 0 -12 14l21 134h-94q-14 0 -14 14v32q0 14 14 14h104l13 82h-117q-14 0 -14 14v32q0 14 14 14h127l21 132q2 14 16 14 h31q14 0 12 -14l-21 -132h68l21 132q2 14 16 14h31q14 0 12 -14l-21 -132h95q14 0 14 -14v-32q0 -14 -14 -14h-105zM278 392h-68l-13 -82h68z" />
<glyph unicode="$" horiz-adv-x="330" d="M206 465q-13 -4 -13 10v65q0 10 -7 17t-17 7h-8q-10 0 -17 -7t-7 -17v-55q1 -11 4 -19t11 -16l131 -98q16 -14 20.5 -28.5t6.5 -32.5v-135q0 -47 -29.5 -81.5t-74.5 -42.5v-38q0 -14 -14 -14h-54q-14 0 -14 14v38q-45 8 -74.5 42.5t-29.5 81.5v57q0 14 13 18l91 24 q13 4 13 -10v-84q0 -10 7 -17t17 -7h8q10 0 17 7t7 17v95q-1 13 -4 23t-12 18l-129 99q-15 14 -21.5 28t-6.5 37v84q0 47 29.5 81.5t74.5 42.5v37q0 14 14 14h54q14 0 14 -14v-37q45 -8 74.5 -42.5t29.5 -81.5v-38q0 -14 -13 -18z" />
<glyph unicode="%" horiz-adv-x="541" d="M77 0q-14 0 -10 13l325 674q4 13 18 13h54q6 0 9 -4.5t1 -9.5l-325 -673q-4 -13 -18 -13h-54zM145 707q33 0 56.5 -23.5t23.5 -56.5v-196q0 -33 -23.5 -56.5t-56.5 -23.5h-30q-33 0 -56.5 23.5t-23.5 56.5v196q0 33 23.5 56.5t56.5 23.5h30zM148 623q0 14 -14 14h-8 q-14 0 -14 -14v-188q0 -14 14 -14h8q14 0 14 14v188zM426 349q33 0 56.5 -23.5t23.5 -56.5v-196q0 -33 -23.5 -56.5t-56.5 -23.5h-30q-33 0 -56.5 23.5t-23.5 56.5v196q0 33 23.5 56.5t56.5 23.5h30zM429 265q0 14 -14 14h-8q-14 0 -14 -14v-188q0 -14 14 -14h8q14 0 14 14 v188z" />
<glyph unicode="&#x26;" horiz-adv-x="412" d="M364 241q8 -2 8 -10v-33q0 -8 -8 -6l-34 7v-80q0 -26 -10 -49t-27 -40t-40 -27t-49 -10h-38q-26 0 -49 10t-40 27t-27 40t-10 49v177q0 21 5 43q3 8 6.5 14.5t9.5 11.5q13 11 29 17q-17 7 -29 20q-14 16 -19 40q-1 6 -1.5 12.5t-0.5 13.5v113q0 26 10 49t27 40t40 27 t49 10h38q26 0 49 -10t40 -27t27 -40t10 -49v-103q0 -14 -13 -10l-91 24q-13 4 -13 18v66q0 10 -7 17t-17 7h-8q-10 0 -17 -7t-7 -17v-116q0 -16 5 -21q2 -2 6.5 -5.5t11.5 -3.5h47q5 0 8.5 -3.5t3.5 -8.5v-74q0 -5 -3.5 -8.5t-8.5 -3.5h-47q-9 0 -12.5 -3t-5.5 -5 q-3 -4 -4 -12t-1 -16v-172q0 -10 7 -17t17 -7h8q10 0 17 7t7 17v145q0 8 8 6z" />
<glyph unicode="'" horiz-adv-x="142" d="M34 476q-14 0 -14 14v196q0 14 14 14h75q14 0 12 -14l-36 -196q-2 -14 -16 -14h-35z" />
<glyph unicode="(" horiz-adv-x="235" d="M146 105q13 -48 32 -85.5t44 -69.5q8 -9 -1 -18l-25 -25q-9 -9 -18 0q-41 37 -72.5 82t-52.5 101q-43 108 -43 260q0 150 43 260q21 55 52.5 100.5t72.5 82.5q9 9 18 0l25 -25q9 -9 1 -18q-25 -32 -44 -69.5t-32 -85.5q-14 -48 -21.5 -108t-7.5 -137t7.5 -137t21.5 -108z " />
<glyph unicode=")" horiz-adv-x="235" d="M89 105q13 48 21 108t8 137t-8 137t-21 108q-14 48 -32.5 85.5t-43.5 69.5q-8 9 1 18l25 25q9 9 18 0q82 -74 125 -183q21 -56 32 -120t11 -140t-11 -140.5t-32 -119.5q-22 -56 -53 -101t-72 -82q-9 -9 -18 0l-25 25q-9 9 -1 18q25 32 43.5 69.5t32.5 85.5z" />
<glyph unicode="*" horiz-adv-x="262" d="M232 545q10 -6 10 -14q0 -4 -2 -7l-14 -25q-2 -3 -6 -5q-7 -4 -17 2q-21 10 -49 34q3 -17 5 -33t2 -27t-8 -15q-4 -2 -8 -2h-28q-4 0 -8 2q-3 2 -6 5t-2 10q0 11 2 27t5 33q-29 -24 -49 -34q-11 -5 -17 -2q-4 2 -6 5l-14 25q-2 3 -2 7q0 3 2 7t8 7l23 13q14 7 31 13 q-17 6 -31 13l-23 13q-10 5 -10 13q0 4 2 8l14 25q2 2 6 4q7 4 17 -1q11 -6 23 -14.5t26 -19.5q-3 17 -5 33t-2 27q-1 7 2 10t6 5q4 2 8 2h28q4 0 8 -2q8 -4 8 -15t-2 -27t-5 -33q14 11 26 19.5t23 14.5q9 5 17 1q4 -2 6 -4l14 -25q2 -4 2 -8q0 -7 -10 -13l-23 -13 q-14 -7 -31 -13q17 -6 31 -13z" />
<glyph unicode="+" horiz-adv-x="438" d="M394 418q14 0 14 -14v-76q0 -14 -14 -14h-123v-123q0 -14 -14 -14h-76q-14 0 -14 14v123h-123q-14 0 -14 14v76q0 14 14 14h123v123q0 14 14 14h76q14 0 14 -14v-123h123z" />
<glyph unicode="," horiz-adv-x="177" d="M53 -82v15q0 1 1 3q3 3 5 3q9 0 24.5 8.5t20.5 36.5q1 4 0.5 9.5t-3.5 7.5q-2 2 -7.5 0.5t-8.5 -1.5q-17 0 -27.5 4.5t-19.5 12.5q-18 16 -18 46q0 22 16 39q18 19 45 19q30 0 49.5 -20t23.5 -49q2 -10 2.5 -20t-1.5 -20q-4 -27 -16.5 -49t-35.5 -37q-6 -4 -12.5 -7.5 t-13.5 -5.5q-1 0 -6 -1l-10 -2q-2 0 -4 1q-4 2 -4 7z" />
<glyph unicode="-" horiz-adv-x="298" d="M44 314q-14 0 -14 14v76q0 14 14 14h210q14 0 14 -14v-76q0 -14 -14 -14h-210z" />
<glyph unicode="." horiz-adv-x="168" d="M20 57q0 26 19 45t45 19t45 -19t19 -45t-19 -45t-45 -19t-45 19t-19 45z" />
<glyph unicode="/" horiz-adv-x="292" d="M11 0q-14 0 -10 13l208 674q4 13 18 13h54q6 0 9 -4.5t1 -9.5l-208 -673q-4 -13 -18 -13h-54z" />
<glyph unicode="0" horiz-adv-x="370" d="M330 119q0 -26 -10 -49t-27 -40t-40 -27t-49 -10h-38q-26 0 -49 10t-40 27t-27 40t-10 49v462q0 26 10 49t27 40t40 27t49 10h38q26 0 49 -10t40 -27t27 -40t10 -49v-462zM213 576q0 10 -7 17t-17 7h-8q-10 0 -17 -7t-7 -17v-452q0 -10 7 -17t17 -7h8q10 0 17 7t7 17v452 z" />
<glyph unicode="1" horiz-adv-x="282" d="M229 700q13 -2 13 -14v-672q0 -14 -14 -14h-89q-14 0 -14 14v502q-13 -10 -32.5 -20t-36.5 -13q-7 -2 -11 2q-5 3 -5 10v75q0 5 3.5 9t8.5 5q23 9 42 25q17 13 31.5 33.5t18.5 49.5q3 8 11 8h74z" />
<glyph unicode="2" horiz-adv-x="371" d="M232 249q-3 -5 -6 -9.5t-6 -9.5q-15 -24 -25 -45t-16 -37q-7 -18 -12 -35h155q9 0 9 -9v-95q0 -9 -9 -9h-264q-7 0 -9 9q-3 19 -3.5 37.5t0.5 33.5q1 18 4 34q2 19 7 36t10 31q6 16 13 29q26 47 49 83l41 62q21 30 39 52q5 11 4 21t0 30v118q0 10 -7 17t-17 7h-8 q-10 0 -17 -7t-7 -17v-66q0 -14 -13 -18l-91 -24q-13 -4 -13 10v103q0 26 10 49t27 40t40 27t49 10h38q26 0 49 -10t40 -27t27 -40t10 -49v-60v-59q0 -31 -7.5 -60t-24.5 -55l-32 -49z" />
<glyph unicode="3" horiz-adv-x="370" d="M330 119q0 -26 -10 -49t-27 -40t-40 -27t-49 -10h-38q-26 0 -49 10t-40 27t-27 40t-10 49v109q0 14 13 18l91 24q13 4 13 -10v-136q0 -10 7 -17t17 -7h8q10 0 17 7t7 17v172q0 8 -1 16t-4 12q-2 2 -5.5 5t-12.5 3h-47q-5 0 -8.5 3.5t-3.5 8.5v74q0 5 3.5 8.5t8.5 3.5h47 q7 0 11.5 3.5t6.5 5.5q5 5 5 21v116q0 10 -7 17t-17 7h-8q-10 0 -17 -7t-7 -17v-66q0 -14 -13 -18l-91 -24q-13 -4 -13 10v103q0 26 10 49t27 40t40 27t49 10h38q26 0 49 -10t40 -27t27 -40t10 -49v-113q0 -7 -0.5 -13.5t-1.5 -12.5q-5 -24 -19 -40q-13 -13 -29 -20 q16 -6 29 -17q9 -9 16 -26q5 -22 5 -43v-177z" />
<glyph unicode="4" horiz-adv-x="390" d="M346 246q4 -4 4 -9v-83q0 -6 -4 -10q-6 -4 -9 -4h-32v-126q0 -14 -14 -14h-89q-14 0 -14 14v126h-155q-5 0 -9 4q-4 3 -4 10v85q0 5 1 7q0 2 1 3q39 76 64.5 147.5t40.5 130t21.5 100.5t8.5 60q0 3 2 6l5 5q2 2 7 2h120q14 0 14 -14v-436h32q3 0 9 -4zM187 480 q-6 -31 -16 -68q-8 -32 -22.5 -73t-34.5 -89h73v230z" />
<glyph unicode="5" horiz-adv-x="371" d="M260 445q35 -10 53 -36t17 -62v-228q0 -26 -10 -49t-27 -40t-40 -27t-49 -10h-38q-26 0 -49 10t-40 27t-27 40t-10 49v41q0 14 13 18l91 24q13 4 13 -10v-68q0 -10 7 -17t17 -7h8q10 0 17 7t7 17v197q0 16 -6 22q-2 2 -6.5 5t-11.5 3h-8q-7 0 -11.5 -3.5t-6.5 -5.5 q-6 -6 -6 -21v-28q0 -5 -3 -8t-8 -1l-95 25q-11 4 -11 14v363q0 14 14 14h59h181q14 0 14 -14v-85q0 -14 -14 -14h-137v-151q30 14 65 14q20 0 38 -5z" />
<glyph unicode="6" horiz-adv-x="370" d="M166 -7q-26 0 -49 10t-40 27t-27 40t-10 49v462q0 26 10 49t27 40t40 27t49 10h38q26 0 49 -10t40 -27t27 -40t10 -49v-41q0 -14 -13 -18l-91 -24q-13 -4 -13 10v68q0 10 -7 17t-17 7h-8q-10 0 -17 -7t-7 -17v-147q30 14 65 14q20 0 38 -5q70 -20 70 -98v-221 q0 -26 -10 -49t-27 -40t-40 -27t-49 -10h-38zM157 124q0 -10 7 -17t17 -7h8q10 0 17 7t7 17v190q0 16 -6 22q-2 2 -6.5 5t-11.5 3h-8q-7 0 -11.5 -3.5t-6.5 -5.5q-6 -6 -6 -21v-190z" />
<glyph unicode="7" horiz-adv-x="317" d="M106 0q-7 0 -11 6q-2 3 -2 7q0 93 5 185t19 183q12 75 27 128t24 81h-135q-6 0 -9 4q-4 4 -4 9v84q0 3 4 9q4 4 9 4h245q6 0 10 -4q4 -6 4 -9v-93q-21 -56 -34.5 -110.5t-22 -100.5t-12 -79t-4.5 -46q-5 -60 -6.5 -119.5t-1.5 -125.5q0 -13 -13 -13h-92z" />
<glyph unicode="8" horiz-adv-x="370" d="M309 402q-13 -13 -29 -20q16 -6 29 -17q9 -9 16 -26q5 -22 5 -43v-177q0 -26 -10 -49t-27 -40t-40 -27t-49 -10h-38q-26 0 -49 10t-40 27t-27 40t-10 49v177q0 21 5 43q3 8 6.5 14.5t9.5 11.5q13 11 29 17q-17 7 -29 20q-14 16 -19 40q-1 6 -1.5 12.5t-0.5 13.5v113 q0 26 10 49t27 40t40 27t49 10h38q26 0 49 -10t40 -27t27 -40t10 -49v-113q0 -7 -0.5 -13.5t-1.5 -12.5q-5 -24 -19 -40zM213 291q0 8 -1 16t-4 12q-2 2 -5.5 5t-12.5 3h-10q-9 0 -12.5 -3t-5.5 -5q-3 -4 -4 -12t-1 -16v-167q0 -10 7 -17t17 -7h8q10 0 17 7t7 17v167z M213 576q0 10 -7 17t-17 7h-8q-10 0 -17 -7t-7 -17v-109q0 -16 5 -21q2 -2 6.5 -5.5t11.5 -3.5h10q7 0 11.5 3.5t6.5 5.5q5 5 5 21v109z" />
<glyph unicode="9" horiz-adv-x="370" d="M204 707q26 0 49 -10t40 -27t27 -40t10 -49v-462q0 -26 -10 -49t-27 -40t-40 -27t-49 -10h-38q-26 0 -49 10t-40 27t-27 40t-10 49v41q0 14 13 18l91 24q13 4 13 -10v-68q0 -10 7 -17t17 -7h8q10 0 17 7t7 17v147q-31 -14 -65 -14q-20 0 -38 5q-70 19 -70 98v221 q0 26 10 49t27 40t40 27t49 10h38zM213 576q0 10 -7 17t-17 7h-8q-10 0 -17 -7t-7 -17v-190q0 -16 6 -22q2 -2 6.5 -5t11.5 -3h8q7 0 11.5 3.5t6.5 5.5q6 6 6 21v190z" />
<glyph unicode=":" horiz-adv-x="168" d="M20 217q0 26 19 45t45 19t45 -19t19 -45t-19 -45t-45 -19t-45 19t-19 45zM20 442q0 26 19 45t45 19t45 -19t19 -45t-19 -45t-45 -19t-45 19t-19 45z" />
<glyph unicode=";" horiz-adv-x="177" d="M20 442q0 26 19 45t45 19t45 -19t19 -45t-19 -45t-45 -19t-45 19t-19 45zM53 80v15q0 1 1 3q3 3 5 3q9 0 24.5 8.5t20.5 36.5q1 4 0.5 9.5t-3.5 7.5q-2 2 -7.5 0.5t-8.5 -1.5q-17 0 -27.5 4.5t-19.5 12.5q-18 16 -18 46q0 22 16 39q18 19 45 19q30 0 49.5 -20t23.5 -49 q2 -10 2.5 -20t-1.5 -20q-4 -27 -16.5 -49t-35.5 -37q-6 -4 -12.5 -7.5t-13.5 -5.5q-1 0 -6 -1l-10 -2q-2 0 -4 1q-4 2 -4 7z" />
<glyph unicode="&#x3c;" horiz-adv-x="320" d="M153 353q-1 -1 -1 -3t1 -3l81 -67l45 -38q11 -9 11 -23v-98q0 -6 -3 -8t-8 2l-256 215q-2 1 -2.5 3t-0.5 4v26q0 5 3 7l256 215q5 4 8 2t3 -8v-98q0 -14 -11 -23l-45 -38z" />
<glyph unicode="=" horiz-adv-x="352" d="M44 236q-14 0 -14 14v76q0 14 14 14h264q14 0 14 -14v-76q0 -14 -14 -14h-264zM44 386q-14 0 -14 14v76q0 14 14 14h264q14 0 14 -14v-76q0 -14 -14 -14h-264z" />
<glyph unicode="&#x3e;" horiz-adv-x="320" d="M41 458q-11 9 -11 23v98q0 6 3 8t8 -2l256 -215q3 -2 3 -7v-26q0 -2 -0.5 -4t-2.5 -3l-256 -215q-5 -4 -8 -2t-3 8v98q0 14 11 23l126 105q1 1 1 3t-1 3z" />
<glyph unicode="?" horiz-adv-x="382" d="M98 57q0 26 19 45t45 19t45 -19t19 -45t-19 -45t-45 -19t-45 19t-19 45zM188 707q51 0 82 -17.5t48.5 -45t23 -61t4.5 -64.5q-1 -29 -3 -46t-9 -32t-22 -33l-42 -50l-36 -40q-18 -19 -27 -41q-6 -14 -9 -37.5t-5 -42.5l-1 -15q0 -5 -3.5 -8t-8.5 -3h-42q-11 0 -13 11 q-2 24 -4 44q-2 17 -3 32t-1 19q-1 23 7 43t20.5 39.5t29 39.5t31.5 43q9 14 13.5 23.5t7 18t2.5 16.5v21q0 34 -7 53.5t-33 19.5q-19 0 -27.5 -14t-8.5 -37v-53q0 -5 -3 -9t-8 -5l-95 -23q-5 -2 -8 1t-3 8v76q0 82 40 125.5t113 43.5z" />
<glyph unicode="@" horiz-adv-x="536" d="M217 202q-31 0 -47 16t-24 36q-9 23 -10 52q0 24 4.5 49t15.5 48q22 48 61 75q27 19 58 19q26 0 44 -15l5 -5l2 5q4 10 12 10h62q5 0 10 -5q4 -5 2 -12l-48 -166q-1 -4 -3.5 -12t-3 -17t1 -16t9.5 -8q5 -1 13 0.5t22 12.5q12 7 22 25q10 17 16 43t6 58q0 45 -13 79.5 t-36 59.5t-53.5 37t-68.5 14q-30 1 -68 -14t-65 -53q-23 -33 -38 -76t-15 -94q0 -53 12 -95.5t37 -72.5t60.5 -46.5t76.5 -16.5q40 0 71.5 13.5t53.5 35.5q4 4 10 4t9 -4l24 -29q3 -4 2 -10.5t-5 -10.5q-31 -31 -71 -46t-91 -17q-45 -2 -80 10.5t-60 29.5q-29 19 -51 44 q-68 77 -68 213q0 65 19.5 119t54.5 95t81.5 64t100.5 23q31 0 58 -6.5t50 -17.5t40.5 -27t32.5 -35q29 -38 44 -83t15 -88q0 -57 -22 -107q-11 -23 -27 -42.5t-37 -32.5q-29 -17 -65 -17q-28 0 -46 11q-20 12 -29 34q-5 -5 -9.5 -10t-9.5 -9q-25 -19 -54 -19zM225 286 q1 -6 5 -9q7 -7 21 1q5 2 11 10q12 15 19 41l20 75q0 9 -2 17q-3 5 -6 7q-1 1 -7 1q-11 0 -22 -10q-12 -11 -22 -30t-15.5 -40.5t-5.5 -38.5q0 -14 4 -24z" />
<glyph unicode="A" horiz-adv-x="356" d="M335 14q2 -14 -12 -14h-91q-13 0 -15 14l-8 108h-62l-8 -108q-2 -14 -15 -14h-91q-14 0 -12 14l75 672q2 14 16 14h132q14 0 16 -14zM201 234l-19 271h-8l-19 -271h46z" />
<glyph unicode="B" horiz-adv-x="365" d="M307 349q14 -14 21 -33t7 -42v-148q0 -26 -10 -49t-27 -40t-40 -27t-49 -10h-150q-14 0 -14 14v672q0 14 14 14h150q26 0 49 -10t40 -27t27 -40t10 -49v-100q0 -46 -28 -77q-15 -16 -36 -26q22 -8 36 -22zM218 290q0 10 -7 17t-17 7h-32v-207h32q10 0 17 7t7 17v159z M218 569q0 10 -7 17t-17 7h-32v-170h32q10 0 17 7t7 17v122z" />
<glyph unicode="C" horiz-adv-x="355" d="M199 707q26 0 49 -10t40 -27t27 -40t10 -49v-80q0 -14 -13 -18l-91 -14q-13 -4 -13 10v97q0 10 -7 17t-17 7h-8q-10 0 -17 -7t-7 -17v-452q0 -10 7 -17t17 -7h8q10 0 17 7t7 17v140q0 14 13 10l91 -12q13 -4 13 -18v-125q0 -26 -10 -49t-27 -40t-40 -27t-49 -10h-38 q-26 0 -49 10t-40 27t-27 40t-10 49v462q0 26 10 49t27 40t40 27t49 10h38z" />
<glyph unicode="D" horiz-adv-x="370" d="M209 700q26 0 49 -10t40 -27t27 -40t10 -49v-448q0 -26 -10 -49t-27 -40t-40 -27t-49 -10h-150q-14 0 -14 14v672q0 14 14 14h150zM218 569q0 10 -7 17t-17 7h-32v-486h32q10 0 17 7t7 17v438z" />
<glyph unicode="E" horiz-adv-x="330" d="M276 117q14 0 14 -14v-89q0 -14 -14 -14h-217q-14 0 -14 14v672q0 14 14 14h217q14 0 14 -14v-89q0 -14 -14 -14h-114v-144h99q14 0 14 -14v-89q0 -14 -14 -14h-99v-205h114z" />
<glyph unicode="F" horiz-adv-x="320" d="M276 700q14 0 14 -14v-89q0 -14 -14 -14h-114v-144h99q14 0 14 -14v-89q0 -14 -14 -14h-99v-308q0 -14 -14 -14h-89q-14 0 -14 14v672q0 14 14 14h217z" />
<glyph unicode="G" d="M199 707q26 0 49 -10t40 -27t27 -40t10 -49v-32q0 -14 -13 -18l-91 -33q-13 -4 -13 10v68q0 10 -7 17t-17 7h-8q-10 0 -17 -7t-7 -17v-452q0 -10 7 -17t17 -7h8q10 0 17 7t7 17v178h-28v114h131q14 0 14 -14v-283q0 -26 -10 -49t-27 -40t-40 -27t-49 -10h-38 q-26 0 -49 10t-40 27t-27 40t-10 49v462q0 26 10 49t27 40t40 27t49 10h38z" />
<glyph unicode="H" horiz-adv-x="390" d="M331 700q14 0 14 -14v-672q0 -14 -14 -14h-89q-14 0 -14 14v286h-66v-286q0 -14 -14 -14h-89q-14 0 -14 14v672q0 14 14 14h89q14 0 14 -14v-269h66v269q0 14 14 14h89z" />
<glyph unicode="I" horiz-adv-x="207" d="M162 14q0 -14 -14 -14h-89q-14 0 -14 14v672q0 14 14 14h89q14 0 14 -14v-672z" />
<glyph unicode="J" horiz-adv-x="355" d="M301 700q14 0 14 -14v-567q0 -26 -10 -49t-27 -40t-40 -27t-49 -10h-38q-26 0 -49 10t-40 27t-27 40t-10 49v127q0 14 13 18l91 24q13 4 13 -10v-154q0 -10 7 -17t17 -7h8q10 0 17 7t7 17v562q0 14 14 14h89z" />
<glyph unicode="K" horiz-adv-x="403" d="M373 700q6 0 8 -4.5t0 -9.5l-134 -295l132 -377q2 -5 -1 -9.5t-9 -4.5h-99q-6 0 -11 3.5t-7 8.5l-73 226l-17 -42v-182q0 -14 -14 -14h-89q-14 0 -14 14v672q0 14 14 14h89q14 0 14 -14v-215l92 217q5 12 19 12h100z" />
<glyph unicode="L" horiz-adv-x="330" d="M291 117q14 0 14 -14v-89q0 -14 -14 -14h-135h-2h-1h-89q-14 0 -14 14v672q0 14 14 14h89q14 0 14 -14v-569h124z" />
<glyph unicode="M" horiz-adv-x="480" d="M421 700q14 0 14 -14v-672q0 -14 -14 -14h-96q-14 0 -14 14v316l-66 -258q-2 -5 -5 -5t-5 5l-66 258v-316q0 -14 -14 -14h-96q-14 0 -14 14v672q0 14 14 14h85q6 0 10.5 -4.5t6.5 -9.5l79 -358l79 358q2 5 6.5 9.5t10.5 4.5h85z" />
<glyph unicode="N" horiz-adv-x="410" d="M351 700q14 0 14 -14v-672q0 -14 -14 -14h-64q-6 0 -11.5 4t-7.5 9l-106 331v-330q0 -14 -14 -14h-89q-14 0 -14 14v672q0 14 14 14h66q6 0 11.5 -4t7.5 -9l104 -321v320q0 14 14 14h89z" />
<glyph unicode="O" d="M325 119q0 -26 -10 -49t-27 -40t-40 -27t-49 -10h-38q-26 0 -49 10t-40 27t-27 40t-10 49v462q0 26 10 49t27 40t40 27t49 10h38q26 0 49 -10t40 -27t27 -40t10 -49v-462zM208 576q0 10 -7 17t-17 7h-8q-10 0 -17 -7t-7 -17v-452q0 -10 7 -17t17 -7h8q10 0 17 7t7 17v452 z" />
<glyph unicode="P" horiz-adv-x="355" d="M209 700q26 0 49 -10t40 -27t27 -40t10 -49v-163q0 -26 -10 -49t-27 -40t-40 -27t-49 -10h-47v-271q0 -14 -14 -14h-89q-14 0 -14 14v672q0 14 14 14h150zM218 569q0 10 -7 17t-17 7h-32v-201h32q10 0 17 7t7 17v153z" />
<glyph unicode="Q" horiz-adv-x="364" d="M326 -40q3 -5 1.5 -10.5t-6.5 -7.5l-69 -31q-14 -6 -22 6l-51 76h-18q-26 0 -49 10t-40 27t-27 40t-10 49v462q0 26 10 49t27 40t40 27t49 10h38q26 0 49 -10t40 -27t27 -40t10 -49v-462q0 -28 -11 -52.5t-31 -41.5zM152 124q0 -10 7 -17t17 -7h8q10 0 17 7t7 17v452 q0 10 -7 17t-17 7h-8q-10 0 -17 -7t-7 -17v-452z" />
<glyph unicode="R" horiz-adv-x="376" d="M355 14q3 -14 -10 -14h-91q-6 0 -11.5 4t-7.5 10l-73 245v-259l-1 10q-2 -10 -13 -10h-89q-14 0 -14 14v672q0 14 14 14h150q26 0 49 -10t40 -27t27 -40t10 -49v-163q0 -37 -19 -66.5t-50 -45.5zM162 392h32q10 0 17 7t7 17v153q0 10 -7 17t-17 7h-32v-201z" />
<glyph unicode="S" horiz-adv-x="350" d="M194 707q26 0 49 -10t40 -27t27 -40t10 -49v-38q0 -14 -13 -18l-91 -24q-13 -4 -13 10v65q0 10 -7 17t-17 7h-8q-10 0 -17 -7t-7 -17v-91q1 -11 4 -19t11 -16l131 -98q16 -14 20.5 -28.5t6.5 -32.5v-172q0 -26 -10 -49t-27 -40t-40 -27t-49 -10h-38q-26 0 -49 10t-40 27 t-27 40t-10 49v96q0 14 13 18l91 24q13 4 13 -10v-123q0 -10 7 -17t17 -7h8q10 0 17 7t7 17v132q-1 13 -4 23t-12 18l-129 99q-15 14 -21.5 28t-6.5 37v120q0 26 10 49t27 40t40 27t49 10h38z" />
<glyph unicode="T" horiz-adv-x="336" d="M297 700q14 0 14 -14v-89q0 -14 -14 -14h-71v-569q0 -14 -14 -14h-89q-5 0 -9.5 4t-4.5 10v569h-70q-14 0 -14 14v89q0 14 14 14h258z" />
<glyph unicode="U" d="M311 700q14 0 14 -14v-567q0 -26 -10 -49t-27 -40t-40 -27t-49 -10h-38q-26 0 -49 10t-40 27t-27 40t-10 49v567q0 14 14 14h89q14 0 14 -14v-562q0 -10 7 -17t17 -7h8q10 0 17 7t7 17v562q0 14 14 14h89z" />
<glyph unicode="V" horiz-adv-x="378" d="M355 700q14 0 12 -14l-118 -672q-2 -14 -16 -14h-88q-14 0 -16 14l-118 672q-2 14 12 14h108q13 0 15 -14l41 -424h4l41 424q2 14 15 14h108z" />
<glyph unicode="W" horiz-adv-x="569" d="M546 700q14 0 12 -14l-118 -672q-2 -14 -16 -14h-88q-14 0 -16 14l-35 249h-1l-35 -249q-2 -14 -16 -14h-88q-14 0 -16 14l-118 672q-2 14 12 14h108q13 0 15 -14l45 -408h4l34 408q2 14 15 14h81q13 0 15 -14l34 -408h4l45 408q2 14 15 14h108z" />
<glyph unicode="X" horiz-adv-x="378" d="M347 14q3 -14 -11 -14h-93q-14 0 -16 14l-38 198l-38 -198q-2 -14 -16 -14h-93q-6 0 -9.5 4t-1.5 10l82 337l-82 335q-2 5 1.5 9.5t9.5 4.5h93q14 0 16 -14l38 -198l38 198q2 14 16 14h93q6 0 9.5 -4.5t1.5 -9.5l-82 -335z" />
<glyph unicode="Y" horiz-adv-x="370" d="M349 700q6 0 9 -4.5t1 -9.5l-115 -414v-258q0 -14 -14 -14h-90q-14 0 -14 14v258l-115 414q-2 5 1 9.5t9 4.5h106q14 0 16 -14l40 -252h4l40 252q2 14 16 14h106z" />
<glyph unicode="Z" horiz-adv-x="353" d="M309 112q14 0 14 -14v-84q0 -14 -14 -14h-265q-6 0 -9.5 4t-1.5 10l139 574h-128q-14 0 -14 14v84q0 14 14 14h263q6 0 9.5 -4.5t1.5 -9.5l-139 -574h130z" />
<glyph unicode="[" horiz-adv-x="230" d="M110 720v-740h96q14 0 14 -14v-68q0 -14 -14 -14h-182q-14 0 -14 14v904q0 14 14 14h182q14 0 14 -14v-68q0 -14 -14 -14h-96z" />
<glyph unicode="\" horiz-adv-x="292" d="M227 0q-14 0 -18 13l-208 673q-2 5 1 9.5t9 4.5h54q14 0 18 -13l208 -674q4 -13 -10 -13h-54z" />
<glyph unicode="]" horiz-adv-x="230" d="M24 720q-14 0 -14 14v68q0 14 14 14h182q14 0 14 -14v-904q0 -14 -14 -14h-182q-14 0 -14 14v68q0 14 14 14h96v740h-96z" />
<glyph unicode="^" horiz-adv-x="278" d="M274 555q5 -7 2 -16q-2 -6 -12 -6h-63q-8 0 -11 5l-51 70l-51 -70q-5 -5 -11 -5h-63q-10 0 -12 6q-3 9 2 16l124 140q3 5 10 5h2q5 0 10 -5z" />
<glyph unicode="_" horiz-adv-x="418" d="M34 -90q-14 0 -14 14v62q0 14 14 14h350q14 0 14 -14v-62q0 -14 -14 -14h-350z" />
<glyph unicode="a" horiz-adv-x="356" d="M335 14q2 -14 -12 -14h-91q-13 0 -15 14l-8 98h-62l-8 -98q-2 -14 -15 -14h-91q-14 0 -12 14l75 572q2 14 16 14h132q14 0 16 -14zM201 224l-19 221h-8l-19 -221h46z" />
<glyph unicode="b" horiz-adv-x="365" d="M307 283q14 -14 21 -33t7 -42v-82q0 -26 -10 -49t-27 -40t-40 -27t-49 -10h-147q-6 0 -11.5 1.5t-5.5 12.5v572q0 14 14 14h150q26 0 49 -10t40 -27t27 -40t10 -49v-66q0 -46 -28 -77q-15 -16 -36 -26q22 -8 36 -22zM218 224q0 10 -7 17t-17 7h-32v-141h32q10 0 17 7 t7 17v93zM218 469q0 10 -7 17t-17 7h-32v-136h32q10 0 17 7t7 17v88z" />
<glyph unicode="c" horiz-adv-x="355" d="M199 607q26 0 49 -10t40 -27t27 -40t10 -49v-60q0 -14 -13 -18l-91 -14q-13 -4 -13 10v77q0 10 -7 17t-17 7h-8q-10 0 -17 -7t-7 -17v-352q0 -10 7 -17t17 -7h8q10 0 17 7t7 17v120q0 14 13 10l91 -12q13 -4 13 -18v-105q0 -26 -10 -49t-27 -40t-40 -27t-49 -10h-38 q-26 0 -49 10t-40 27t-27 40t-10 49v362q0 26 10 49t27 40t40 27t49 10h38z" />
<glyph unicode="d" horiz-adv-x="370" d="M209 600q26 0 49 -10t40 -27t27 -40t10 -49v-348q0 -26 -10 -49t-27 -40t-40 -27t-49 -10h-150q-14 0 -14 14v572q0 14 14 14h150zM218 469q0 10 -7 17t-17 7h-32v-386h32q10 0 17 7t7 17v338z" />
<glyph unicode="e" horiz-adv-x="330" d="M276 117q14 0 14 -14v-89q0 -14 -14 -14h-217q-14 0 -14 14v572q0 14 14 14h217q14 0 14 -14v-89q0 -14 -14 -14h-114v-114h99q14 0 14 -14v-89q0 -14 -14 -14h-99v-135h114z" />
<glyph unicode="f" horiz-adv-x="320" d="M276 600q14 0 14 -14v-89q0 -14 -14 -14h-114v-114h99q14 0 14 -14v-89q0 -14 -14 -14h-99v-238q0 -14 -14 -14h-89q-14 0 -14 14v572q0 14 14 14h217z" />
<glyph unicode="g" d="M199 607q26 0 49 -10t40 -27t27 -40t10 -49v-22q0 -14 -13 -18l-91 -33q-13 -4 -13 10v58q0 10 -7 17t-17 7h-8q-10 0 -17 -7t-7 -17v-352q0 -10 7 -17t17 -7h8q10 0 17 7t7 17v108h-28v114h131q14 0 14 -14v-213q0 -26 -10 -49t-27 -40t-40 -27t-49 -10h-38 q-26 0 -49 10t-40 27t-27 40t-10 49v362q0 26 10 49t27 40t40 27t49 10h38z" />
<glyph unicode="h" horiz-adv-x="390" d="M331 600q14 0 14 -14v-572q0 -14 -14 -14h-89q-14 0 -14 14v226h-66v-226q0 -14 -14 -14h-89q-14 0 -14 14v572q0 14 14 14h89q14 0 14 -14v-229h66v229q0 14 14 14h89z" />
<glyph unicode="i" horiz-adv-x="207" d="M162 14q0 -14 -14 -14h-89q-14 0 -14 14v572q0 14 14 14h89q14 0 14 -14v-572z" />
<glyph unicode="j" horiz-adv-x="355" d="M301 600q14 0 14 -14v-467q0 -26 -10 -49t-27 -40t-40 -27t-49 -10h-38q-26 0 -49 10t-40 27t-27 40t-10 49v107q0 14 13 18l91 24q13 4 13 -10v-134q0 -10 7 -17t17 -7h8q10 0 17 7t7 17v462q0 14 14 14h89z" />
<glyph unicode="k" horiz-adv-x="403" d="M373 600q6 0 8 -4.5t0 -9.5l-136 -255l134 -317q2 -5 -1 -9.5t-9 -4.5h-99q-6 0 -11 3.5t-7 8.5l-73 166l-17 -32v-132q0 -14 -14 -14h-89q-14 0 -14 14v572q0 14 14 14h89q14 0 14 -14v-175l92 177q5 12 19 12h100z" />
<glyph unicode="l" horiz-adv-x="330" d="M291 117q14 0 14 -14v-89q0 -14 -14 -14h-135h-2h-1h-89q-14 0 -14 14v572q0 14 14 14h89q14 0 14 -14v-469h124z" />
<glyph unicode="m" horiz-adv-x="480" d="M421 600q14 0 14 -14v-572q0 -14 -14 -14h-96q-14 0 -14 14v266l-66 -238q-2 -5 -5 -5t-5 5l-66 238v-266q0 -14 -14 -14h-96q-14 0 -14 14v572q0 14 14 14h85q6 0 10.5 -4.5t6.5 -9.5l79 -308l79 308q2 5 6.5 9.5t10.5 4.5h85z" />
<glyph unicode="n" horiz-adv-x="410" d="M351 600q14 0 14 -14v-572q0 -14 -14 -14h-64q-6 0 -11.5 4t-7.5 9l-106 261v-260q0 -14 -14 -14h-89q-14 0 -14 14v572q0 14 14 14h66q6 0 11.5 -4t7.5 -9l104 -291v290q0 14 14 14h89z" />
<glyph unicode="o" d="M325 119q0 -26 -10 -49t-27 -40t-40 -27t-49 -10h-38q-26 0 -49 10t-40 27t-27 40t-10 49v362q0 26 10 49t27 40t40 27t49 10h38q26 0 49 -10t40 -27t27 -40t10 -49v-362zM208 476q0 10 -7 17t-17 7h-8q-10 0 -17 -7t-7 -17v-352q0 -10 7 -17t17 -7h8q10 0 17 7t7 17v352 z" />
<glyph unicode="p" horiz-adv-x="355" d="M209 600q26 0 49 -10t40 -27t27 -40t10 -49v-133q0 -26 -10 -49t-27 -40t-40 -27t-49 -10h-47v-201q0 -14 -14 -14h-89q-14 0 -14 14v572q0 14 14 14h150zM218 469q0 10 -7 17t-17 7h-32v-171h32q10 0 17 7t7 17v123z" />
<glyph unicode="q" horiz-adv-x="364" d="M326 -40q3 -5 1.5 -10.5t-6.5 -7.5l-69 -31q-14 -6 -22 6l-51 76h-18q-26 0 -49 10t-40 27t-27 40t-10 49v362q0 26 10 49t27 40t40 27t49 10h38q26 0 49 -10t40 -27t27 -40t10 -49v-362q0 -28 -11 -52.5t-31 -41.5zM152 124q0 -10 7 -17t17 -7h8q10 0 17 7t7 17v352 q0 10 -7 17t-17 7h-8q-10 0 -17 -7t-7 -17v-352z" />
<glyph unicode="r" horiz-adv-x="376" d="M162 14q0 -14 -15 -14h-89q-13 0 -13 14v572q0 14 14 14h150q26 0 49 -10t40 -27t27 -40t10 -49v-123q0 -37 -22 -66.5t-53 -45.5l95 -225q3 -14 -10 -14h-91q-6 0 -11.5 4t-7.5 10l-73 185v-185zM162 332h32q10 0 17 7t7 17v113q0 10 -7 17t-17 7h-32v-161z" />
<glyph unicode="s" horiz-adv-x="350" d="M194 607q26 0 49 -10t40 -27t27 -40t10 -49v-38q0 -14 -13 -18l-91 -24q-13 -4 -13 10v65q0 10 -7 17t-17 7h-8q-10 0 -17 -7t-7 -17v-61q1 -11 4 -19t11 -16l131 -98q16 -14 20.5 -28.5t6.5 -32.5v-102q0 -26 -10 -49t-27 -40t-40 -27t-49 -10h-38q-26 0 -49 10t-40 27 t-27 40t-10 49v56q0 14 13 18l91 24q13 4 13 -10v-83q0 -10 7 -17t17 -7h8q10 0 17 7t7 17v62q-1 13 -4 23t-12 18l-129 99q-15 14 -21.5 28t-6.5 37v90q0 26 10 49t27 40t40 27t49 10h38z" />
<glyph unicode="t" horiz-adv-x="336" d="M297 600q14 0 14 -14v-89q0 -14 -14 -14h-71v-469q0 -14 -14 -14h-89q-5 0 -9.5 4t-4.5 10v469h-70q-14 0 -14 14v89q0 14 14 14h258z" />
<glyph unicode="u" d="M311 600q14 0 14 -14v-467q0 -26 -10 -49t-27 -40t-40 -27t-49 -10h-38q-26 0 -49 10t-40 27t-27 40t-10 49v467q0 14 14 14h89q14 0 14 -14v-462q0 -10 7 -17t17 -7h8q10 0 17 7t7 17v462q0 14 14 14h89z" />
<glyph unicode="v" horiz-adv-x="378" d="M355 600q14 0 12 -14l-118 -572q-2 -14 -16 -14h-88q-14 0 -16 14l-118 572q-2 14 12 14h108q13 0 15 -14l41 -374h4l41 374q2 14 15 14h108z" />
<glyph unicode="w" horiz-adv-x="549" d="M526 600q14 0 12 -14l-108 -572q-2 -14 -16 -14h-88q-14 0 -16 14l-35 209h-1l-35 -209q-2 -14 -16 -14h-88q-14 0 -16 14l-108 572q-2 14 12 14h108q13 0 15 -14l35 -338h4l38 338q2 14 15 14h73q13 0 15 -14l38 -338h4l35 338q2 14 15 14h108z" />
<glyph unicode="x" horiz-adv-x="378" d="M347 14q3 -14 -11 -14h-93q-14 0 -16 14l-38 148l-38 -148q-2 -14 -16 -14h-93q-6 0 -9.5 4t-1.5 10l82 287l-82 285q-2 5 1.5 9.5t9.5 4.5h93q14 0 16 -14l38 -148l38 148q2 14 16 14h93q6 0 9.5 -4.5t1.5 -9.5l-82 -285z" />
<glyph unicode="y" horiz-adv-x="370" d="M349 600q6 0 9 -4.5t1 -9.5l-115 -354v-218q0 -14 -14 -14h-90q-14 0 -14 14v218l-115 354q-2 5 1 9.5t9 4.5h106q14 0 16 -14l40 -192h4l40 192q2 14 16 14h106z" />
<glyph unicode="z" horiz-adv-x="353" d="M309 112q14 0 14 -14v-84q0 -14 -14 -14h-265q-6 0 -9.5 4t-1.5 10l139 474h-128q-14 0 -14 14v84q0 14 14 14h263q6 0 9.5 -4.5t1.5 -9.5l-139 -474h130z" />
<glyph unicode="{" horiz-adv-x="296" d="M208 691q-15 0 -26 -5q-10 -5 -17.5 -15t-5.5 -30q1 -17 7 -36t14 -39t17 -39t16 -37q13 -33 14 -61q1 -24 -10 -47t-46 -32q35 -10 46 -32.5t10 -46.5q-1 -28 -14 -61q-7 -19 -16 -37.5t-17 -38.5t-14 -39t-7 -36q-2 -20 5.5 -30t17.5 -15q11 -5 26 -5h33q7 0 11 -4 t4 -10v-57q0 -7 -2.5 -10.5t-5.5 -5.5q-4 -3 -7 -4q-21 -5 -39.5 -4t-32.5 5q-17 4 -30 11q-24 12 -42 31q-16 16 -28.5 41.5t-10.5 60.5q2 38 13 71t25 60q3 7 9.5 17.5t12.5 22.5t10 24t3 20q-2 14 -9.5 21t-15.5 9q-10 3 -22 2h-29q-7 0 -11 4t-4 11v50q0 7 4 11t11 4h29 q12 -1 22 2q8 2 15.5 9t9.5 21q1 8 -3 19.5t-10 23.5t-12.5 23t-9.5 18q-14 27 -25 60t-13 71q-2 35 10.5 60t28.5 42q18 18 42 31q13 6 30 10q14 3 32.5 5t39.5 -3q3 -1 7 -4q8 -6 8 -16v-57q0 -6 -4 -10t-11 -4h-33z" />
<glyph unicode="|" horiz-adv-x="160" d="M54 -95q-14 0 -14 14v862q0 14 14 14h52q14 0 14 -14v-862q0 -14 -14 -14h-52z" />
<glyph unicode="}" horiz-adv-x="296" d="M88 691h-33q-7 0 -11 4t-4 10v57q0 11 7 16q4 3 8 4q20 5 39 3t33 -5q17 -4 30 -10q24 -13 42 -31q16 -17 28.5 -42t10.5 -60q-2 -38 -13 -71t-25 -60q-3 -7 -9.5 -18t-12.5 -23t-10 -23.5t-3 -19.5q2 -14 9.5 -21t15.5 -9q10 -3 22 -2h29q7 0 11 -4t4 -11v-50 q0 -7 -4 -11t-11 -4h-29q-12 1 -22 -2q-8 -2 -15.5 -9t-9.5 -21q-1 -8 3 -20t10 -24t12.5 -22.5t9.5 -17.5q14 -27 25 -60t13 -71q2 -35 -10.5 -60.5t-28.5 -41.5q-18 -19 -42 -31q-13 -7 -30 -11q-14 -4 -33 -5t-39 4q-4 1 -8 4q-7 5 -7 16v57q0 6 4 10t11 4h33q15 0 26 5 q10 5 17 15t6 30q-1 17 -7 36t-14 39t-17 38.5t-16 37.5q-13 33 -14 61q-1 24 10 46.5t46 32.5q-35 9 -46 32t-10 47q1 28 14 61q7 18 16 37t17 39t14 39t7 36q1 20 -6 30t-17 15q-11 5 -26 5z" />
<glyph unicode="&#xa2;" d="M221 420q-13 -4 -13 10v46q0 10 -7 17t-17 7h-8q-10 0 -17 -7t-7 -17v-248q0 -10 7 -17t17 -7h8q10 0 17 7t7 17v91q0 14 13 10l91 -12q13 -4 13 -18v-76q0 -47 -29.5 -81.5t-74.5 -42.5v-85q0 -14 -14 -14h-54q-14 0 -14 14v85q-45 8 -74.5 42.5t-29.5 81.5v258 q0 47 29.5 81.5t74.5 42.5v81q0 14 14 14h54q14 0 14 -14v-81q45 -8 74.5 -42.5t29.5 -81.5v-29q0 -14 -13 -18z" />
<glyph unicode="&#xa9;" horiz-adv-x="260" d="M130 707q23 0 43 -8.5t35 -23.5t23.5 -35t8.5 -43t-8.5 -43t-23.5 -35t-35 -23.5t-43 -8.5t-43 8.5t-35 23.5t-23.5 35t-8.5 43t8.5 43t23.5 35t35 23.5t43 8.5zM130 507q38 0 64 26t26 64t-26 64t-64 26t-64 -26t-26 -64t26 -64t64 -26zM135 673q14 0 23 -9t9 -23v-21 q0 -4 -3 -4l-24 -4q-3 -2 -3 3v25q0 6 -6 6h-2q-6 0 -6 -6v-85q0 -6 6 -6h2q6 0 6 6v28q0 3 3 3l24 -4q3 -2 3 -4v-24q0 -14 -9 -23t-23 -9h-10q-14 0 -23 9t-9 23v87q0 14 9 23t23 9h10z" />
<glyph unicode="&#xaa;" horiz-adv-x="356" d="M335 14q2 -14 -12 -14h-91q-13 0 -15 14l-8 98h-62l-8 -98q-2 -14 -15 -14h-91q-14 0 -12 14l75 572q2 14 16 14h132q14 0 16 -14zM201 224l-19 221h-8l-19 -221h46z" />
<glyph unicode="&#xad;" horiz-adv-x="298" d="M44 314q-14 0 -14 14v76q0 14 14 14h210q14 0 14 -14v-76q0 -14 -14 -14h-210z" />
<glyph unicode="&#xae;" horiz-adv-x="260" d="M169 531q1 -3 -2 -3h-23q-3 0 -4 3l-16 51v-52q0 -2 -3 -2h-19q-3 0 -3 3v134q0 4 3 4h33q13 0 21 -9.5t8 -22.5v-18q0 -9 -4 -16.5t-14 -10.5zM138 636q0 6 -6 6h-8v-30h8q6 0 6 6v18zM130 707q23 0 43 -8.5t35 -23.5t23.5 -35t8.5 -43t-8.5 -43t-23.5 -35t-35 -23.5 t-43 -8.5t-43 8.5t-35 23.5t-23.5 35t-8.5 43t8.5 43t23.5 35t35 23.5t43 8.5zM130 507q38 0 64 26t26 64t-26 64t-64 26t-64 -26t-26 -64t26 -64t64 -26z" />
<glyph unicode="&#xb0;" horiz-adv-x="168" d="M84 714q26 0 45 -19t19 -45t-19 -45t-45 -19t-45 19t-19 45t19 45t45 19zM84 612q16 0 27 11t11 27t-11 27t-27 11t-27 -11t-11 -27t11 -27t27 -11z" />
<glyph unicode="&#xb2;" horiz-adv-x="371" d="M232 249q-3 -5 -6 -9.5t-6 -9.5q-15 -24 -25 -45t-16 -37q-7 -18 -12 -35h155q9 0 9 -9v-95q0 -9 -9 -9h-264q-7 0 -9 9q-3 19 -3.5 37.5t0.5 33.5q1 18 4 34q2 19 7 36t10 31q6 16 13 29q26 47 49 83l41 62q21 30 39 52q5 11 4 21t0 30v118q0 10 -7 17t-17 7h-8 q-10 0 -17 -7t-7 -17v-66q0 -14 -13 -18l-91 -24q-13 -4 -13 10v103q0 26 10 49t27 40t40 27t49 10h38q26 0 49 -10t40 -27t27 -40t10 -49v-60v-59q0 -31 -7.5 -60t-24.5 -55l-32 -49z" />
<glyph unicode="&#xb3;" horiz-adv-x="370" d="M330 119q0 -26 -10 -49t-27 -40t-40 -27t-49 -10h-38q-26 0 -49 10t-40 27t-27 40t-10 49v109q0 14 13 18l91 24q13 4 13 -10v-136q0 -10 7 -17t17 -7h8q10 0 17 7t7 17v172q0 8 -1 16t-4 12q-2 2 -5.5 5t-12.5 3h-47q-5 0 -8.5 3.5t-3.5 8.5v74q0 5 3.5 8.5t8.5 3.5h47 q7 0 11.5 3.5t6.5 5.5q5 5 5 21v116q0 10 -7 17t-17 7h-8q-10 0 -17 -7t-7 -17v-66q0 -14 -13 -18l-91 -24q-13 -4 -13 10v103q0 26 10 49t27 40t40 27t49 10h38q26 0 49 -10t40 -27t27 -40t10 -49v-113q0 -7 -0.5 -13.5t-1.5 -12.5q-5 -24 -19 -40q-13 -13 -29 -20 q16 -6 29 -17q9 -9 16 -26q5 -22 5 -43v-177z" />
<glyph unicode="&#xb6;" horiz-adv-x="481" d="M427 700q14 0 14 -14v-672q0 -14 -14 -14h-45q-14 0 -14 14v579h-38v-579q0 -14 -14 -14h-89q-14 0 -14 14v271h-47q-26 0 -49 10t-40 27t-27 40t-10 49v163q0 26 10 49t27 40t40 27t49 10h261zM213 593h-32q-10 0 -17 -7t-7 -17v-153q0 -10 7 -17t17 -7h32v201z" />
<glyph unicode="&#xb9;" horiz-adv-x="282" d="M229 700q13 -2 13 -14v-672q0 -14 -14 -14h-89q-14 0 -14 14v502q-13 -10 -32.5 -20t-36.5 -13q-7 -2 -11 2q-5 3 -5 10v75q0 5 3.5 9t8.5 5q23 9 42 25q17 13 31.5 33.5t18.5 49.5q3 8 11 8h74z" />
<glyph unicode="&#xba;" d="M325 119q0 -26 -10 -49t-27 -40t-40 -27t-49 -10h-38q-26 0 -49 10t-40 27t-27 40t-10 49v362q0 26 10 49t27 40t40 27t49 10h38q26 0 49 -10t40 -27t27 -40t10 -49v-362zM208 476q0 10 -7 17t-17 7h-8q-10 0 -17 -7t-7 -17v-352q0 -10 7 -17t17 -7h8q10 0 17 7t7 17v352 z" />
<glyph unicode="&#xbc;" horiz-adv-x="964" d="M920 246q4 -4 4 -9v-83q0 -6 -4 -10q-6 -4 -9 -4h-32v-126q0 -14 -14 -14h-89q-14 0 -14 14v126h-155q-5 0 -9 4q-4 3 -4 10v85q0 5 1 7q0 2 1 3q39 76 64.5 147.5t40.5 130t21.5 100.5t8.5 60q0 3 2 6l5 5q2 2 7 2h120q14 0 14 -14v-436h32q3 0 9 -4zM761 480 q-6 -31 -16 -68q-8 -32 -22.5 -73t-34.5 -89h73v230zM293 0q-14 0 -10 13l208 674q4 13 18 13h54q6 0 9 -4.5t1 -9.5l-208 -673q-4 -13 -18 -13h-54zM229 700q13 -2 13 -14v-672q0 -14 -14 -14h-89q-14 0 -14 14v502q-13 -10 -32.5 -20t-36.5 -13q-7 -2 -11 2q-5 3 -5 10v75 q0 5 3.5 9t8.5 5q23 9 42 25q17 13 31.5 33.5t18.5 49.5q3 8 11 8h74z" />
<glyph unicode="&#xbd;" horiz-adv-x="945" d="M806 249q-3 -5 -6 -9.5t-6 -9.5q-15 -24 -25 -45t-16 -37q-7 -18 -12 -35h155q9 0 9 -9v-95q0 -9 -9 -9h-264q-7 0 -9 9q-3 19 -3.5 37.5t0.5 33.5q1 18 4 34q2 19 7 36t10 31q6 16 13 29q26 47 49 83l41 62q21 30 39 52q5 11 4 21t0 30v118q0 10 -7 17t-17 7h-8 q-10 0 -17 -7t-7 -17v-66q0 -14 -13 -18l-91 -24q-13 -4 -13 10v103q0 26 10 49t27 40t40 27t49 10h38q26 0 49 -10t40 -27t27 -40t10 -49v-60v-59q0 -31 -7.5 -60t-24.5 -55l-32 -49zM293 0q-14 0 -10 13l208 674q4 13 18 13h54q6 0 9 -4.5t1 -9.5l-208 -673 q-4 -13 -18 -13h-54zM229 700q13 -2 13 -14v-672q0 -14 -14 -14h-89q-14 0 -14 14v502q-13 -10 -32.5 -20t-36.5 -13q-7 -2 -11 2q-5 3 -5 10v75q0 5 3.5 9t8.5 5q23 9 42 25q17 13 31.5 33.5t18.5 49.5q3 8 11 8h74z" />
<glyph unicode="&#xbe;" horiz-adv-x="1052" d="M1008 246q4 -4 4 -9v-83q0 -6 -4 -10q-6 -4 -9 -4h-32v-126q0 -14 -14 -14h-89q-14 0 -14 14v126h-155q-5 0 -9 4q-4 3 -4 10v85q0 5 1 7q0 2 1 3q39 76 64.5 147.5t40.5 130t21.5 100.5t8.5 60q0 3 2 6l5 5q2 2 7 2h120q14 0 14 -14v-436h32q3 0 9 -4zM849 480 q-6 -31 -16 -68q-8 -32 -22.5 -73t-34.5 -89h73v230zM381 0q-14 0 -10 13l208 674q4 13 18 13h54q6 0 9 -4.5t1 -9.5l-208 -673q-4 -13 -18 -13h-54zM330 119q0 -26 -10 -49t-27 -40t-40 -27t-49 -10h-38q-26 0 -49 10t-40 27t-27 40t-10 49v109q0 14 13 18l91 24 q13 4 13 -10v-136q0 -10 7 -17t17 -7h8q10 0 17 7t7 17v172q0 8 -1 16t-4 12q-2 2 -5.5 5t-12.5 3h-47q-5 0 -8.5 3.5t-3.5 8.5v74q0 5 3.5 8.5t8.5 3.5h47q7 0 11.5 3.5t6.5 5.5q5 5 5 21v116q0 10 -7 17t-17 7h-8q-10 0 -17 -7t-7 -17v-66q0 -14 -13 -18l-91 -24 q-13 -4 -13 10v103q0 26 10 49t27 40t40 27t49 10h38q26 0 49 -10t40 -27t27 -40t10 -49v-113q0 -7 -0.5 -13.5t-1.5 -12.5q-5 -24 -19 -40q-13 -13 -29 -20q16 -6 29 -17q9 -9 16 -26q5 -22 5 -43v-177z" />
<glyph unicode="&#xbf;" horiz-adv-x="382" d="M284 643q0 -26 -19 -45t-45 -19t-45 19t-19 45t19 45t45 19t45 -19t19 -45zM194 -7q73 0 113 43.5t40 125.5v76q0 11 -11 9l-95 -23q-11 -4 -11 -14v-53q0 -23 -8.5 -37t-27.5 -14q-26 0 -33 19.5t-7 53.5v21q0 8 2.5 16.5t7 18t13.5 23.5q15 23 31.5 43t29 39.5 t20.5 39.5t7 43q-1 4 -1.5 19t-2.5 32l-4 44q-2 11 -13 11h-42q-5 0 -8.5 -3t-3.5 -8l-1 -15q-2 -19 -5 -42.5t-9 -37.5q-10 -22 -27 -41l-36 -40l-42 -50q-15 -18 -22.5 -33t-9 -32t-2.5 -46q-1 -31 4.5 -64.5t22.5 -61t48.5 -45t82.5 -17.5z" />
<glyph unicode="&#xc2;" horiz-adv-x="356" d="M313 789q5 -7 2 -16q-2 -6 -12 -6h-63q-8 0 -11 5l-51 70l-51 -70q-5 -5 -11 -5h-63q-10 0 -12 6q-3 9 2 16l124 140q3 5 10 5h2q5 0 10 -5zM335 14q2 -14 -12 -14h-91q-13 0 -15 14l-8 108h-62l-8 -108q-2 -14 -15 -14h-91q-14 0 -12 14l75 672q2 14 16 14h132 q14 0 16 -14zM201 234l-19 271h-8l-19 -271h46z" />
<glyph unicode="&#xc5;" horiz-adv-x="356" d="M178 831q26 0 45 -19t19 -45t-19 -45t-45 -19t-45 19t-19 45t19 45t45 19zM178 729q16 0 27 11t11 27t-11 27t-27 11t-27 -11t-11 -27t11 -27t27 -11zM335 14q2 -14 -12 -14h-91q-13 0 -15 14l-8 108h-62l-8 -108q-2 -14 -15 -14h-91q-14 0 -12 14l75 672q2 14 16 14h132 q14 0 16 -14zM201 234l-19 271h-8l-19 -271h46z" />
<glyph unicode="&#xca;" horiz-adv-x="330" d="M302 789q5 -7 2 -16q-2 -6 -12 -6h-63q-8 0 -11 5l-51 70l-51 -70q-5 -5 -11 -5h-63q-10 0 -12 6q-3 9 2 16l124 140q3 5 10 5h2q5 0 10 -5zM276 117q14 0 14 -14v-89q0 -14 -14 -14h-217q-14 0 -14 14v672q0 14 14 14h217q14 0 14 -14v-89q0 -14 -14 -14h-114v-144h99 q14 0 14 -14v-89q0 -14 -14 -14h-99v-205h114z" />
<glyph unicode="&#xce;" horiz-adv-x="207" d="M238 789q5 -7 2 -16q-2 -6 -12 -6h-63q-8 0 -11 5l-51 70l-51 -70q-5 -5 -11 -5h-63q-10 0 -12 6q-3 9 2 16l124 140q3 5 10 5h2q5 0 10 -5zM162 14q0 -14 -14 -14h-89q-14 0 -14 14v672q0 14 14 14h89q14 0 14 -14v-672z" />
<glyph unicode="&#xd4;" d="M315 789q5 -7 2 -16q-2 -6 -12 -6h-63q-8 0 -11 5l-51 70l-51 -70q-5 -5 -11 -5h-63q-10 0 -12 6q-3 9 2 16l124 140q3 5 10 5h2q5 0 10 -5zM325 119q0 -26 -10 -49t-27 -40t-40 -27t-49 -10h-38q-26 0 -49 10t-40 27t-27 40t-10 49v462q0 26 10 49t27 40t40 27t49 10h38 q26 0 49 -10t40 -27t27 -40t10 -49v-462zM208 576q0 10 -7 17t-17 7h-8q-10 0 -17 -7t-7 -17v-452q0 -10 7 -17t17 -7h8q10 0 17 7t7 17v452z" />
<glyph unicode="&#xd7;" horiz-adv-x="355" d="M346 279q4 -4 4 -10t-4 -10l-54 -54q-4 -4 -10 -4t-10 4l-87 87l-87 -87q-4 -4 -10 -4t-10 4l-54 54q-4 4 -4 10t4 10l87 87l-87 87q-4 4 -4 10t4 10l54 54q4 4 10 4t10 -4l87 -87l87 87q4 4 10 4t10 -4l54 -54q4 -4 4 -10t-4 -10l-87 -87z" />
<glyph unicode="&#xdb;" d="M315 789q5 -7 2 -16q-2 -6 -12 -6h-63q-8 0 -11 5l-51 70l-51 -70q-5 -5 -11 -5h-63q-10 0 -12 6q-3 9 2 16l124 140q3 5 10 5h2q5 0 10 -5zM311 700q14 0 14 -14v-567q0 -26 -10 -49t-27 -40t-40 -27t-49 -10h-38q-26 0 -49 10t-40 27t-27 40t-10 49v567q0 14 14 14h89 q14 0 14 -14v-562q0 -10 7 -17t17 -7h8q10 0 17 7t7 17v562q0 14 14 14h89z" />
<glyph unicode="&#xe2;" horiz-adv-x="356" d="M313 689q5 -7 2 -16q-2 -6 -12 -6h-63q-8 0 -11 5l-51 70l-51 -70q-5 -5 -11 -5h-63q-10 0 -12 6q-3 9 2 16l124 140q3 5 10 5h2q5 0 10 -5zM335 14q2 -14 -12 -14h-91q-13 0 -15 14l-8 98h-62l-8 -98q-2 -14 -15 -14h-91q-14 0 -12 14l75 572q2 14 16 14h132 q14 0 16 -14zM201 224l-19 221h-8l-19 -221h46z" />
<glyph unicode="&#xe5;" horiz-adv-x="356" d="M178 795q26 0 45 -19t19 -45t-19 -45t-45 -19t-45 19t-19 45t19 45t45 19zM178 693q16 0 27 11t11 27t-11 27t-27 11t-27 -11t-11 -27t11 -27t27 -11zM335 14q2 -14 -12 -14h-91q-13 0 -15 14l-8 98h-62l-8 -98q-2 -14 -15 -14h-91q-14 0 -12 14l75 572q2 14 16 14h132 q14 0 16 -14zM201 224l-19 221h-8l-19 -221h46z" />
<glyph unicode="&#xea;" horiz-adv-x="330" d="M302 689q5 -7 2 -16q-2 -6 -12 -6h-63q-8 0 -11 5l-51 70l-51 -70q-5 -5 -11 -5h-63q-10 0 -12 6q-3 9 2 16l124 140q3 5 10 5h2q5 0 10 -5zM276 117q14 0 14 -14v-89q0 -14 -14 -14h-217q-14 0 -14 14v572q0 14 14 14h217q14 0 14 -14v-89q0 -14 -14 -14h-114v-114h99 q14 0 14 -14v-89q0 -14 -14 -14h-99v-135h114z" />
<glyph unicode="&#xee;" horiz-adv-x="207" d="M238 689q5 -7 2 -16q-2 -6 -12 -6h-63q-8 0 -11 5l-51 70l-51 -70q-5 -5 -11 -5h-63q-10 0 -12 6q-3 9 2 16l124 140q3 5 10 5h2q5 0 10 -5zM162 14q0 -14 -14 -14h-89q-14 0 -14 14v572q0 14 14 14h89q14 0 14 -14v-572z" />
<glyph unicode="&#xf4;" d="M315 689q5 -7 2 -16q-2 -6 -12 -6h-63q-8 0 -11 5l-51 70l-51 -70q-5 -5 -11 -5h-63q-10 0 -12 6q-3 9 2 16l124 140q3 5 10 5h2q5 0 10 -5zM325 119q0 -26 -10 -49t-27 -40t-40 -27t-49 -10h-38q-26 0 -49 10t-40 27t-27 40t-10 49v362q0 26 10 49t27 40t40 27t49 10h38 q26 0 49 -10t40 -27t27 -40t10 -49v-362zM208 476q0 10 -7 17t-17 7h-8q-10 0 -17 -7t-7 -17v-352q0 -10 7 -17t17 -7h8q10 0 17 7t7 17v352z" />
<glyph unicode="&#xf7;" horiz-adv-x="438" d="M44 314q-14 0 -14 14v76q0 14 14 14h350q14 0 14 -14v-76q0 -14 -14 -14h-350zM155 515q0 26 19 45t45 19t45 -19t19 -45t-19 -45t-45 -19t-45 19t-19 45zM155 217q0 26 19 45t45 19t45 -19t19 -45t-19 -45t-45 -19t-45 19t-19 45z" />
<glyph unicode="&#xfb;" d="M315 689q5 -7 2 -16q-2 -6 -12 -6h-63q-8 0 -11 5l-51 70l-51 -70q-5 -5 -11 -5h-63q-10 0 -12 6q-3 9 2 16l124 140q3 5 10 5h2q5 0 10 -5zM311 600q14 0 14 -14v-467q0 -26 -10 -49t-27 -40t-40 -27t-49 -10h-38q-26 0 -49 10t-40 27t-27 40t-10 49v467q0 14 14 14h89 q14 0 14 -14v-462q0 -10 7 -17t17 -7h8q10 0 17 7t7 17v462q0 14 14 14h89z" />
<glyph unicode="&#x152;" horiz-adv-x="690" d="M636 117q14 0 14 -14v-89q0 -14 -14 -14h-217q-14 0 -14 14v672q0 14 14 14h217q14 0 14 -14v-89q0 -14 -14 -14h-114v-144h99q14 0 14 -14v-89q0 -14 -14 -14h-99v-205h114zM325 119q0 -26 -10 -49t-27 -40t-40 -27t-49 -10h-38q-26 0 -49 10t-40 27t-27 40t-10 49v462 q0 26 10 49t27 40t40 27t49 10h38q26 0 49 -10t40 -27t27 -40t10 -49v-462zM208 576q0 10 -7 17t-17 7h-8q-10 0 -17 -7t-7 -17v-452q0 -10 7 -17t17 -7h8q10 0 17 7t7 17v452z" />
<glyph unicode="&#x153;" horiz-adv-x="690" d="M636 117q14 0 14 -14v-89q0 -14 -14 -14h-217q-14 0 -14 14v572q0 14 14 14h217q14 0 14 -14v-89q0 -14 -14 -14h-114v-114h99q14 0 14 -14v-89q0 -14 -14 -14h-99v-135h114zM325 119q0 -26 -10 -49t-27 -40t-40 -27t-49 -10h-38q-26 0 -49 10t-40 27t-27 40t-10 49v362 q0 26 10 49t27 40t40 27t49 10h38q26 0 49 -10t40 -27t27 -40t10 -49v-362zM208 476q0 10 -7 17t-17 7h-8q-10 0 -17 -7t-7 -17v-352q0 -10 7 -17t17 -7h8q10 0 17 7t7 17v352z" />
<glyph unicode="&#x2c6;" horiz-adv-x="278" d="M274 555q5 -7 2 -16q-2 -6 -12 -6h-63q-8 0 -11 5l-51 70l-51 -70q-5 -5 -11 -5h-63q-10 0 -12 6q-3 9 2 16l124 140q3 5 10 5h2q5 0 10 -5z" />
<glyph unicode="&#x2000;" horiz-adv-x="467" />
<glyph unicode="&#x2001;" horiz-adv-x="934" />
<glyph unicode="&#x2002;" horiz-adv-x="467" />
<glyph unicode="&#x2003;" horiz-adv-x="934" />
<glyph unicode="&#x2004;" horiz-adv-x="311" />
<glyph unicode="&#x2005;" horiz-adv-x="233" />
<glyph unicode="&#x2006;" horiz-adv-x="155" />
<glyph unicode="&#x2007;" horiz-adv-x="155" />
<glyph unicode="&#x2008;" horiz-adv-x="116" />
<glyph unicode="&#x2009;" horiz-adv-x="186" />
<glyph unicode="&#x200a;" horiz-adv-x="51" />
<glyph unicode="&#x2010;" horiz-adv-x="298" d="M44 314q-14 0 -14 14v76q0 14 14 14h210q14 0 14 -14v-76q0 -14 -14 -14h-210z" />
<glyph unicode="&#x2011;" horiz-adv-x="298" d="M44 314q-14 0 -14 14v76q0 14 14 14h210q14 0 14 -14v-76q0 -14 -14 -14h-210z" />
<glyph unicode="&#x2013;" horiz-adv-x="352" d="M44 314q-14 0 -14 14v76q0 14 14 14h264q14 0 14 -14v-76q0 -14 -14 -14h-264z" />
<glyph unicode="&#x2014;" horiz-adv-x="438" d="M44 314q-14 0 -14 14v76q0 14 14 14h350q14 0 14 -14v-76q0 -14 -14 -14h-350z" />
<glyph unicode="&#x2018;" horiz-adv-x="137" d="M104 699v-15q0 -2 -1 -3q-2 -3 -5 -3q-5 0 -11.5 -2t-13.5 -7t-12.5 -13.5t-7.5 -22.5q-1 -4 -0.5 -9.5t3.5 -7.5q2 -2 7.5 -0.5t8.5 1.5q16 0 27 -4.5t20 -12.5q18 -17 18 -46q0 -22 -16 -39q-18 -19 -46 -19q-31 0 -49.5 20t-22.5 49q-2 10 -2.5 20t1.5 20 q4 27 16.5 49t35.5 37q6 4 12.5 7.5t13.5 5.5q1 0 6 1l10 2q2 0 4 -1q4 -2 4 -7z" />
<glyph unicode="&#x2019;" horiz-adv-x="137" d="M33 504v15q0 1 1 3q3 3 5 3q9 0 24.5 8.5t20.5 36.5q1 4 0.5 9.5t-3.5 7.5q-2 2 -7.5 0.5t-8.5 -1.5q-17 0 -27.5 4.5t-19.5 12.5q-18 16 -18 46q0 22 16 39q18 19 46 19q30 0 49 -20t23 -49q2 -10 2.5 -20t-1.5 -20q-4 -27 -16.5 -49t-35.5 -37q-6 -4 -12.5 -7.5 t-13.5 -5.5q-1 0 -6 -1l-10 -2q-2 0 -4 1q-4 2 -4 7z" />
<glyph unicode="&#x201a;" horiz-adv-x="217" d="M73 -82v15q0 1 1 3q3 3 5 3q9 0 24.5 8.5t20.5 36.5q1 4 0.5 9.5t-3.5 7.5q-2 2 -7.5 0.5t-8.5 -1.5q-17 0 -27.5 4.5t-19.5 12.5q-18 16 -18 46q0 22 16 39q18 19 45 19q30 0 49.5 -20t23.5 -49q2 -10 2.5 -20t-1.5 -20q-4 -27 -16.5 -49t-35.5 -37q-6 -4 -12.5 -7.5 t-13.5 -5.5q-1 0 -6 -1l-10 -2q-2 0 -4 1q-4 2 -4 7z" />
<glyph unicode="&#x201c;" horiz-adv-x="305" d="M104 699v-15q0 -2 -1 -3q-2 -3 -5 -3q-5 0 -11.5 -2t-13.5 -7t-12.5 -13.5t-7.5 -22.5q-1 -4 -0.5 -9.5t3.5 -7.5q2 -2 7.5 -0.5t8.5 1.5q16 0 27 -4.5t20 -12.5q18 -17 18 -46q0 -22 -16 -39q-18 -19 -46 -19q-31 0 -49.5 20t-22.5 49q-2 10 -2.5 20t1.5 20 q4 27 16.5 49t35.5 37q6 4 12.5 7.5t13.5 5.5q1 0 6 1l10 2q2 0 4 -1q4 -2 4 -7zM272 699v-15q0 -2 -1 -3q-2 -3 -5 -3q-5 0 -11.5 -2t-13.5 -7t-12.5 -13.5t-7.5 -22.5q-1 -4 -0.5 -9.5t3.5 -7.5q2 -2 7.5 -0.5t8.5 1.5q16 0 27 -4.5t20 -12.5q18 -17 18 -46q0 -22 -16 -39 q-18 -19 -46 -19q-31 0 -49.5 20t-22.5 49q-2 10 -2.5 20t1.5 20q4 27 16.5 49t35.5 37q6 4 12.5 7.5t13.5 5.5q1 0 6 1l10 2q2 0 4 -1q4 -2 4 -7z" />
<glyph unicode="&#x201d;" horiz-adv-x="305" d="M201 504v15q0 1 1 3q3 3 5 3q9 0 24.5 8.5t20.5 36.5q1 4 0.5 9.5t-3.5 7.5q-2 2 -7.5 0.5t-8.5 -1.5q-17 0 -27.5 4.5t-19.5 12.5q-18 16 -18 46q0 22 16 39q18 19 46 19q30 0 49 -20t23 -49q2 -10 2.5 -20t-1.5 -20q-4 -27 -16.5 -49t-35.5 -37q-6 -4 -12.5 -7.5 t-13.5 -5.5q-1 0 -6 -1l-10 -2q-2 0 -4 1q-4 2 -4 7zM33 504v15q0 1 1 3q3 3 5 3q9 0 24.5 8.5t20.5 36.5q1 4 0.5 9.5t-3.5 7.5q-2 2 -7.5 0.5t-8.5 -1.5q-17 0 -27.5 4.5t-19.5 12.5q-18 16 -18 46q0 22 16 39q18 19 46 19q30 0 49 -20t23 -49q2 -10 2.5 -20t-1.5 -20 q-4 -27 -16.5 -49t-35.5 -37q-6 -4 -12.5 -7.5t-13.5 -5.5q-1 0 -6 -1l-10 -2q-2 0 -4 1q-4 2 -4 7z" />
<glyph unicode="&#x201e;" horiz-adv-x="345" d="M221 -82v15q0 1 1 3q3 3 5 3q9 0 24.5 8.5t20.5 36.5q1 4 0.5 9.5t-3.5 7.5q-2 2 -7.5 0.5t-8.5 -1.5q-17 0 -27.5 4.5t-19.5 12.5q-18 16 -18 46q0 22 16 39q18 19 45 19q30 0 49.5 -20t23.5 -49q2 -10 2.5 -20t-1.5 -20q-4 -27 -16.5 -49t-35.5 -37q-6 -4 -12.5 -7.5 t-13.5 -5.5q-1 0 -6 -1l-10 -2q-2 0 -4 1q-4 2 -4 7zM53 -82v15q0 1 1 3q3 3 5 3q9 0 24.5 8.5t20.5 36.5q1 4 0.5 9.5t-3.5 7.5q-2 2 -7.5 0.5t-8.5 -1.5q-17 0 -27.5 4.5t-19.5 12.5q-18 16 -18 46q0 22 16 39q18 19 45 19q30 0 49.5 -20t23.5 -49q2 -10 2.5 -20t-1.5 -20 q-4 -27 -16.5 -49t-35.5 -37q-6 -4 -12.5 -7.5t-13.5 -5.5q-1 0 -6 -1l-10 -2q-2 0 -4 1q-4 2 -4 7z" />
<glyph unicode="&#x2022;" horiz-adv-x="248" d="M40 350q0 35 24.5 59.5t59.5 24.5t59.5 -24.5t24.5 -59.5t-24.5 -59.5t-59.5 -24.5t-59.5 24.5t-24.5 59.5z" />
<glyph unicode="&#x2026;" horiz-adv-x="500" d="M352 57q0 26 19 45t45 19t45 -19t19 -45t-19 -45t-45 -19t-45 19t-19 45zM186 57q0 26 19 45t45 19t45 -19t19 -45t-19 -45t-45 -19t-45 19t-19 45zM20 57q0 26 19 45t45 19t45 -19t19 -45t-19 -45t-45 -19t-45 19t-19 45z" />
<glyph unicode="&#x202f;" horiz-adv-x="186" />
<glyph unicode="&#x2039;" horiz-adv-x="320" d="M153 353q-1 -1 -1 -3t1 -3l81 -67l45 -38q11 -9 11 -23v-98q0 -6 -3 -8t-8 2l-256 215q-2 1 -2.5 3t-0.5 4v26q0 5 3 7l256 215q5 4 8 2t3 -8v-98q0 -14 -11 -23l-45 -38z" />
<glyph unicode="&#x203a;" horiz-adv-x="320" d="M41 458q-11 9 -11 23v98q0 6 3 8t8 -2l256 -215q3 -2 3 -7v-26q0 -2 -0.5 -4t-2.5 -3l-256 -215q-5 -4 -8 -2t-3 8v98q0 14 11 23l126 105q1 1 1 3t-1 3z" />
<glyph unicode="&#x2044;" horiz-adv-x="292" d="M11 0q-14 0 -10 13l208 674q4 13 18 13h54q6 0 9 -4.5t1 -9.5l-208 -673q-4 -13 -18 -13h-54z" />
<glyph unicode="&#x205f;" horiz-adv-x="233" />
<glyph unicode="&#x20ac;" horiz-adv-x="403" d="M259 509q-13 -4 -13 10v57q0 10 -7 17t-17 7h-8q-10 0 -17 -7t-7 -17v-126h94q8 0 8 -8v-48q0 -8 -8 -8h-94v-32h94q8 0 8 -8v-48q0 -8 -8 -8h-94v-166q0 -10 7 -17t17 -7h8q10 0 17 7t7 17v100q0 14 13 10l91 -12q13 -4 13 -18v-85q0 -26 -10 -49t-27 -40t-40 -27 t-49 -10h-38q-26 0 -49 10t-40 27t-27 40t-10 49v171h-25q-8 0 -8 8v48q0 8 8 8h25v32h-25q-8 0 -8 8v48q0 8 8 8h25v131q0 26 10 49t27 40t40 27t49 10h38q26 0 49 -10t40 -27t27 -40t10 -49v-40q0 -14 -13 -18z" />
<glyph unicode="&#x2122;" horiz-adv-x="269" d="M245 700q4 0 4 -4v-186q0 -4 -5 -4h-30q-5 0 -5 4v86l-21 -82q-2 -3 -3 0l-21 82v-86q0 -4 -4 -4h-31q-4 0 -4 4v186q0 4 4 4h28q3 0 5 -4l25 -100l25 100q0 4 5 4h28zM107 700q4 0 4 -4v-29q0 -4 -4 -4h-23v-153q0 -4 -4 -4h-29q-4 0 -4 4v153h-23q-4 0 -4 4v29q0 4 4 4 h83z" />
</font>
</defs>
</svg>
